<svg xmlns="http://www.w3.org/2000/svg" xmlns:xlink="http://www.w3.org/1999/xlink" width="500" zoomAndPan="magnify" viewBox="0 0 375 374.999991" height="500" preserveAspectRatio="xMidYMid meet" version="1.0"><defs><g/><clipPath id="63df2dca61"><path d="M 0 44.894531 L 372 44.894531 L 372 344.144531 L 0 344.144531 Z M 0 44.894531 " clip-rule="nonzero"/></clipPath></defs><path fill="#ffffff" d="M 100.730469 49.222656 C 99.285156 49.261719 97.824219 49.65625 96.476562 50.433594 L 10.257812 100.210938 C 5.953125 102.699219 4.492188 108.160156 6.976562 112.46875 L 36.347656 163.347656 C 38.835938 167.652344 44.308594 169.113281 48.617188 166.628906 L 93.675781 140.613281 L 93.675781 330.734375 C 93.675781 335.707031 97.6875 339.722656 102.660156 339.722656 L 269.117188 339.722656 C 274.089844 339.722656 278.089844 335.707031 278.089844 330.734375 L 278.089844 140.355469 L 323.617188 166.632812 C 327.925781 169.121094 333.386719 167.660156 335.871094 163.351562 L 365.242188 112.472656 C 367.730469 108.164062 366.269531 102.703125 361.960938 100.21875 L 275.753906 50.4375 C 274.003906 49.429688 272.058594 49.070312 270.203125 49.289062 C 269.84375 49.246094 269.484375 49.226562 269.117188 49.226562 L 221.433594 49.226562 C 220.726562 54.882812 205.164062 59.414062 186.105469 59.414062 C 167.046875 59.414062 151.496094 54.882812 150.789062 49.226562 L 102.664062 49.226562 C 102.375 49.226562 102.085938 49.25 101.804688 49.277344 C 101.445312 49.242188 101.09375 49.21875 100.734375 49.226562 Z M 100.730469 49.222656 " fill-opacity="1" fill-rule="nonzero"/><g clip-path="url(#63df2dca61)"><path stroke-linecap="butt" transform="matrix(1.728679, 0, 0, 1.728679, -798.735999, -313.870175)" fill="none" stroke-linejoin="miter" d="M 520.320139 210.04064 C 519.48406 210.063236 518.638942 210.291463 517.859355 210.741138 L 467.983841 239.536158 C 465.493681 240.97557 464.648563 244.134593 466.085715 246.627013 L 483.0762 276.059261 C 484.515612 278.549421 487.681415 279.394539 490.173835 277.957386 L 516.239169 262.907961 L 516.239169 372.88853 C 516.239169 375.765094 518.559853 378.088039 521.436418 378.088039 L 617.727885 378.088039 C 620.604449 378.088039 622.918355 375.765094 622.918355 372.88853 L 622.918355 262.758822 L 649.254849 277.959646 C 651.747269 279.399058 654.906293 278.55394 656.343445 276.06152 L 673.33393 246.629273 C 674.773342 244.136853 673.928224 240.97783 671.435805 239.540677 L 621.56707 210.743398 C 620.554736 210.160402 619.429419 209.952512 618.356074 210.079054 C 618.148184 210.054198 617.940294 210.042899 617.727885 210.042899 L 590.14405 210.042899 C 589.735049 213.314907 580.73251 215.936128 569.707563 215.936128 C 558.682616 215.936128 549.686856 213.314907 549.277855 210.042899 L 521.438677 210.042899 C 521.271462 210.042899 521.104246 210.056457 520.941549 210.072275 C 520.733659 210.051938 520.530289 210.03838 520.322399 210.042899 Z M 520.320139 210.04064 " stroke="#000000" stroke-width="4.468" stroke-opacity="1" stroke-miterlimit="4"/></g><path stroke-linecap="butt" transform="matrix(0.323186, 0, 0, 0.323186, -114.469243, 102.271268)" fill="none" stroke-linejoin="miter" d="M 678.197974 176.593303 C 665.990414 176.593303 656.030979 174.127618 648.319668 169.196247 C 640.644618 164.313223 635.060566 157.991882 631.543338 150.232225 C 628.02611 142.412134 626.27354 134.410743 626.27354 126.203879 C 626.27354 118.009101 627.929417 110.164837 631.253257 102.69526 C 634.516665 95.177337 639.157955 89.073557 645.165041 84.38392 C 651.172128 79.645936 658.18241 77.276944 666.183801 77.276944 C 669.169214 77.276944 670.655878 78.473527 670.655878 80.866692 C 670.655878 87.514373 673.508337 92.880865 679.225343 96.978254 C 684.942349 101.08773 691.892198 103.130381 700.099062 103.130381 C 709.478336 103.130381 719.461945 99.081339 730.049888 90.983254 C 740.649918 82.873083 749.461118 69.807368 756.495573 51.798195 C 759.082126 45.005473 761.717025 37.971018 764.400271 30.694828 C 767.14395 23.370292 769.803023 16.517137 772.389575 10.123276 C 774.383879 4.889738 777.030865 1.179123 780.294273 -1.020655 C 783.618113 -3.208347 787.473768 -4.308236 791.873325 -4.308236 C 798.267185 -4.308236 802.316228 -2.845746 804.032538 0.079234 C 805.736762 2.967954 806.075189 6.896129 805.04782 11.875847 C 804.080885 16.710524 802.171187 22.669264 799.342901 29.752066 C 796.562962 36.822782 793.553375 44.219838 790.326228 51.943235 C 787.159514 59.654545 784.427922 66.954908 782.13145 73.844323 C 779.834978 80.721652 778.686742 86.487004 778.686742 91.128295 C 778.686742 94.887256 779.834978 98.12649 782.13145 100.870169 C 784.427922 103.553415 788.09019 104.895038 793.118254 104.895038 C 799.705502 104.895038 805.688415 102.646913 811.054907 98.150663 C 816.481832 93.6665 821.243989 87.731934 825.341378 80.359051 C 829.438768 72.937821 832.593394 64.730956 834.793173 55.750543 C 836.992951 46.709697 838.080753 37.801804 838.080753 29.014778 C 838.080753 20.421139 836.52157 12.540615 833.403203 5.361119 C 830.321096 -1.866724 824.930431 -7.72877 817.207034 -12.22502 C 809.54407 -16.75753 798.799 -19.029828 784.98391 -19.029828 C 775.556289 -19.029828 766.551702 -17.470645 757.958063 -14.340191 C 749.364424 -11.270171 742.354142 -6.508014 736.939304 -0.0658063 C 731.572812 6.328054 728.877479 14.728306 728.877479 25.134949 C 728.877479 29.522419 729.977368 33.160514 732.177146 36.049233 C 734.376925 38.925866 737.084344 40.364183 740.311491 40.364183 C 742.499183 40.605917 743.043084 42.733175 741.919021 46.73387 C 740.843306 50.698306 738.45014 55.230816 734.739525 60.36766 C 731.028911 65.444071 726.266753 69.879888 720.453054 73.687196 C 714.699788 77.506591 708.197147 79.404202 700.981391 79.404202 C 692.774526 79.404202 685.860938 77.349464 680.252712 73.252075 C 674.680746 69.154686 670.486664 63.751934 667.646291 57.067993 C 664.866351 50.371965 663.476382 43.228729 663.476382 35.602026 C 663.476382 22.814304 666.328841 10.727611 672.045847 -0.645968 C 677.762853 -12.079979 685.812591 -22.184455 696.219234 -30.971481 C 706.61379 -39.806854 718.942217 -46.720442 733.204515 -51.70016 C 747.51516 -56.679878 763.276208 -59.169737 780.511833 -59.169737 C 799.705502 -59.169737 815.841238 -56.631531 828.931126 -51.55512 C 842.021015 -46.478709 852.512265 -39.468427 860.429049 -30.53636 C 868.333747 -21.640554 874.026579 -11.439385 877.49546 0.079234 C 881.000601 11.561593 882.765258 23.696633 882.765258 36.484354 C 882.765258 52.499223 880.372093 68.272358 875.585763 83.803759 C 870.799432 99.274726 864.260531 113.271117 855.956973 125.768758 C 847.653414 138.266399 838.080753 148.274181 827.251076 155.792104 C 816.457659 163.26168 805.08408 167.008555 793.118254 167.008555 C 780.717307 167.008555 770.902912 163.26168 763.675069 155.792104 C 756.495573 148.274181 752.494878 138.314745 751.660896 125.913798 C 743.260644 141.493546 732.769394 153.846146 720.162973 162.9716 C 707.568639 172.060793 693.584335 176.593303 678.197974 176.593303 Z M 1007.874621 81.821541 C 1009.482151 79.428376 1011.585236 78.57022 1014.171788 79.259162 C 1016.75834 79.948103 1018.909772 81.289726 1020.613996 83.284031 C 1022.330306 85.290422 1022.57204 87.296813 1021.351284 89.291117 C 1019.344893 92.518264 1016.951727 97.183728 1014.171788 103.287508 C 1011.391849 109.342941 1008.043835 115.833496 1004.139833 122.759171 C 1000.235831 129.648586 995.667061 136.235834 990.445609 142.545088 C 985.260418 148.842255 979.434631 153.991187 972.93199 157.991882 C 966.441436 161.992578 959.092727 163.998969 950.885862 163.998969 C 942.691084 163.998969 936.164269 162.463959 931.329592 159.381852 C 926.543262 156.263485 923.110641 152.262789 921.007556 147.379765 C 918.904471 142.448394 917.852929 137.480764 917.852929 132.501046 C 917.852929 125.527024 918.904471 118.637609 921.007556 111.856974 C 923.110641 105.015905 925.552153 98.501178 928.332092 92.300704 C 931.160378 86.10023 933.626064 80.407398 935.729148 75.234293 C 937.832233 70.000755 938.871689 65.589112 938.871689 61.97519 C 938.871689 60.416007 937.73554 58.095362 935.439068 55.013255 C 933.142596 51.894888 928.984774 49.223729 922.989774 47.036037 C 921.17677 50.988386 919.025338 55.629676 916.535479 60.947821 C 914.045621 66.265967 911.531588 71.475331 908.993383 76.551743 C 906.503524 81.628154 904.47296 85.870583 902.913776 89.291117 C 901.69302 91.87767 899.722889 92.832518 896.97921 92.143577 C 894.295964 91.466722 892.047839 90.028406 890.246922 87.828627 C 888.482264 85.628849 888.192184 83.634545 889.364593 81.821541 C 892.192879 77.820845 895.299159 71.958799 898.671347 64.247489 C 902.079794 56.524092 905.089381 49.284162 907.675933 42.491441 C 904.702607 41.512419 902.309441 39.832368 900.496437 37.439203 C 898.69552 34.997691 897.789018 31.093689 897.789018 25.71511 C 897.789018 21.521028 898.888907 17.363205 901.088685 13.265816 C 903.276377 9.168427 906.382657 5.72372 910.383353 2.94378 C 914.384048 0.103407 919.073685 -1.310736 924.452264 -1.310736 C 933.867798 -1.310736 942.932818 0.502268 951.62315 4.11619 C 960.313483 7.730111 967.468805 12.286794 973.077031 17.810413 C 978.697343 23.273598 981.501456 28.700524 981.501456 34.067016 C 981.501456 39.687328 980.449914 45.005473 978.358916 50.033537 C 976.255831 55.013255 974.1044 60.11384 971.904622 65.347378 C 969.71693 70.520483 968.617041 76.201228 968.617041 82.413789 C 968.617041 86.607871 970.007011 90.125099 972.78695 92.953385 C 975.56689 95.733325 980.377394 97.135381 987.218462 97.135381 C 991.811405 97.135381 995.642887 95.684978 998.712907 92.808345 C 1001.843361 89.883365 1004.889208 86.221097 1007.874621 81.821541 Z M 1061.261545 1.698851 C 1054.082049 1.698851 1047.881576 0.151754 1042.660124 -2.918266 C 1037.474933 -6.04872 1034.88838 -11.608598 1034.88838 -19.622076 C 1034.88838 -30.210019 1037.84962 -37.462035 1043.760013 -41.366037 C 1049.65832 -45.282126 1056.692775 -47.228084 1064.851293 -47.228084 C 1072.46591 -47.228084 1078.908117 -45.52386 1084.177916 -42.103326 C 1089.508147 -38.682791 1091.780446 -32.288931 1090.994811 -22.909657 C 1090.160829 -13.68751 1086.945768 -7.269476 1081.325456 -3.655554 C 1075.765577 -0.0899797 1069.069549 1.698851 1061.261545 1.698851 Z M 1028.011052 163.998969 C 1018.00327 163.998969 1010.896294 160.360874 1006.690125 153.084685 C 1002.496042 145.760148 1000.392958 136.900602 1000.392958 126.493959 C 1000.392958 119.519937 1001.081899 112.122881 1002.447696 104.30279 C 1003.861839 96.494786 1005.662756 89.001037 1007.862534 81.821541 C 1014.89699 59.992973 1021.713885 43.252902 1028.301132 31.577157 C 1034.88838 19.865151 1042.478824 14.003105 1051.072463 14.003105 C 1057.865184 14.003105 1061.261545 18.487268 1061.261545 27.479768 C 1061.261545 33.486854 1060.113309 39.638981 1057.816838 45.936148 C 1055.520366 52.233316 1053.272241 58.433789 1051.072463 64.537569 C 1048.884771 70.64135 1047.784882 76.406702 1047.784882 81.821541 C 1047.784882 86.801258 1049.029812 90.536047 1051.51967 93.025906 C 1054.009529 95.515764 1057.26085 96.760694 1061.261545 96.760694 C 1065.902835 96.760694 1069.758491 95.370724 1072.828511 92.590785 C 1075.910617 89.810845 1078.956464 86.221097 1081.990224 81.821541 C 1083.597754 79.428376 1085.652492 78.521874 1088.142351 79.114122 C 1090.63221 79.694283 1092.723208 81.035906 1094.439518 83.13899 C 1096.143742 85.242075 1096.494256 87.188033 1095.466887 89.001037 C 1093.460496 92.228184 1091.115678 96.833214 1088.432432 102.8403 C 1085.749186 108.79904 1082.497865 115.289595 1078.690557 122.32405 C 1074.883248 129.310159 1070.507866 135.945753 1065.576495 142.242921 C 1060.693471 148.540088 1055.157765 153.749453 1048.957291 157.846842 C 1042.756818 161.944231 1035.770709 163.998969 1028.011052 163.998969 Z M 1228.082086 81.821541 C 1229.302842 80.020624 1231.200453 79.355855 1233.787005 79.839323 C 1236.373558 80.334878 1238.621683 81.434767 1240.53138 83.13899 C 1242.428991 84.855301 1242.779505 86.897952 1241.558749 89.291117 C 1238.766723 95.298204 1235.128628 101.498678 1230.644465 107.892538 C 1226.148215 114.298486 1220.527903 119.640804 1213.795615 123.93158 C 1207.099587 128.234443 1198.880635 130.385875 1189.114587 130.385875 L 1187.27741 130.385875 C 1180.303388 140.587044 1172.14487 148.745562 1162.813942 154.849342 C 1153.543449 160.953122 1144.091654 163.998969 1134.470646 163.998969 C 1125.877008 163.998969 1118.818379 161.412416 1113.306847 156.239312 C 1107.831574 151.005773 1106.103177 142.387961 1108.109568 130.385875 C 1108.68973 127.013687 1107.614014 125.224856 1104.882421 125.031469 C 1102.199175 124.789736 1100.458692 126.578566 1099.685143 130.385875 C 1097.485365 141.421026 1095.23724 152.432003 1092.940768 163.418807 C 1090.644297 174.405612 1088.033571 184.485914 1085.108591 193.659714 C 1082.231958 202.893948 1078.883944 210.242657 1075.076636 215.705843 C 1071.269327 221.229461 1066.676384 223.985228 1061.309892 223.985228 C 1053.876576 223.985228 1048.534257 222.18431 1045.258763 218.570389 C 1041.947009 215.004814 1040.279046 209.928403 1040.279046 203.329069 C 1040.279046 194.106922 1043.240285 182.092749 1049.150678 167.298636 C 1055.048985 152.504523 1061.79336 135.317245 1069.35963 115.736802 C 1071.366021 110.503264 1073.408672 105.064252 1075.511757 99.395593 C 1077.614841 93.690674 1079.657492 87.828627 1081.663883 81.821541 C 1086.498561 67.414202 1090.499256 55.774717 1093.678057 46.890997 C 1096.905204 37.946844 1099.757663 31.142036 1102.247522 26.452399 C 1104.737381 21.762762 1107.275587 18.511441 1109.862139 16.710524 C 1112.448691 14.89752 1115.651665 14.003105 1119.458973 14.003105 C 1124.680425 14.003105 1128.076786 15.0063 1129.635969 17.000605 C 1131.255586 19.006996 1131.859921 21.400161 1131.473147 24.1801 C 1131.074286 26.379879 1131.980788 27.842369 1134.180566 28.579657 C 1136.380344 29.256512 1138.676816 28.398356 1141.069981 26.017278 C 1146.291433 20.78374 1151.34367 17.496159 1156.226694 16.118276 C 1161.109719 14.704133 1165.871876 14.003105 1170.513166 14.003105 C 1182.273519 14.003105 1191.749486 18.052147 1198.928982 26.162318 C 1206.156824 34.260403 1209.770746 45.416421 1209.770746 59.630372 C 1209.770746 66.024233 1209.251018 72.3214 1208.223649 78.521874 C 1207.256714 84.722347 1205.854657 90.70526 1204.05374 96.470613 C 1208.453296 96.470613 1212.647379 95.322377 1216.648074 93.025906 C 1220.64877 90.729434 1224.468165 86.994646 1228.082086 81.821541 Z M 1140.187652 101.885452 C 1145.16737 101.885452 1149.55484 100.398788 1153.374235 97.425462 C 1157.181543 94.391702 1160.179043 90.729434 1162.378821 86.438658 C 1164.5786 82.135795 1165.678489 77.893366 1165.678489 73.687196 C 1165.678489 69.299727 1164.385212 65.564938 1161.786573 62.482832 C 1159.200021 59.364465 1155.005938 57.793195 1149.192239 57.793195 C 1144.405908 57.793195 1140.163479 59.219424 1136.452864 62.047711 C 1132.742249 64.82765 1129.829356 68.369051 1127.738358 72.671914 C 1125.635274 76.96269 1124.583731 81.3139 1124.583731 85.701369 C 1124.583731 90.100926 1125.780314 93.908234 1128.173479 97.135381 C 1130.566645 100.302095 1134.56734 101.885452 1140.187652 101.885452 Z M 1140.187652 101.885452 " stroke="#cb7f00" stroke-width="38.25" stroke-opacity="1" stroke-miterlimit="4"/><g fill="#fed5ff" fill-opacity="1"><g transform="translate(91.814318, 155.273771)"><g><path d="M 12.890625 4.078125 C 8.953125 4.078125 5.738281 3.285156 3.25 1.703125 C 0.757812 0.117188 -1.046875 -1.929688 -2.171875 -4.453125 C -3.304688 -6.972656 -3.875 -9.5625 -3.875 -12.21875 C -3.875 -14.863281 -3.335938 -17.398438 -2.265625 -19.828125 C -1.203125 -22.253906 0.296875 -24.222656 2.234375 -25.734375 C 4.171875 -27.253906 6.429688 -28.015625 9.015625 -28.015625 C 9.984375 -28.015625 10.46875 -27.628906 10.46875 -26.859375 C 10.46875 -24.722656 11.390625 -22.992188 13.234375 -21.671875 C 15.078125 -20.347656 17.320312 -19.6875 19.96875 -19.6875 C 23.007812 -19.6875 26.242188 -20.992188 29.671875 -23.609375 C 33.097656 -26.222656 35.941406 -30.441406 38.203125 -36.265625 C 39.035156 -38.460938 39.890625 -40.738281 40.765625 -43.09375 C 41.640625 -45.457031 42.5 -47.671875 43.34375 -49.734375 C 43.988281 -51.410156 44.84375 -52.601562 45.90625 -53.3125 C 46.96875 -54.03125 48.210938 -54.390625 49.640625 -54.390625 C 51.710938 -54.390625 53.019531 -53.921875 53.5625 -52.984375 C 54.113281 -52.046875 54.226562 -50.769531 53.90625 -49.15625 C 53.582031 -47.601562 52.96875 -45.675781 52.0625 -43.375 C 51.15625 -41.082031 50.1875 -38.691406 49.15625 -36.203125 C 48.125 -33.722656 47.234375 -31.367188 46.484375 -29.140625 C 45.742188 -26.910156 45.375 -25.050781 45.375 -23.5625 C 45.375 -22.332031 45.742188 -21.28125 46.484375 -20.40625 C 47.234375 -19.53125 48.414062 -19.09375 50.03125 -19.09375 C 52.164062 -19.09375 54.101562 -19.820312 55.84375 -21.28125 C 57.59375 -22.738281 59.128906 -24.660156 60.453125 -27.046875 C 61.773438 -29.441406 62.789062 -32.09375 63.5 -35 C 64.21875 -37.90625 64.578125 -40.78125 64.578125 -43.625 C 64.578125 -46.40625 64.070312 -48.957031 63.0625 -51.28125 C 62.0625 -53.613281 60.316406 -55.503906 57.828125 -56.953125 C 55.335938 -58.410156 51.863281 -59.140625 47.40625 -59.140625 C 44.375 -59.140625 41.46875 -58.640625 38.6875 -57.640625 C 35.90625 -56.640625 33.640625 -55.101562 31.890625 -53.03125 C 30.148438 -50.96875 29.28125 -48.253906 29.28125 -44.890625 C 29.28125 -43.460938 29.632812 -42.28125 30.34375 -41.34375 C 31.050781 -40.40625 31.925781 -39.9375 32.96875 -39.9375 C 33.675781 -39.875 33.851562 -39.195312 33.5 -37.90625 C 33.144531 -36.613281 32.367188 -35.144531 31.171875 -33.5 C 29.972656 -31.851562 28.4375 -30.414062 26.5625 -29.1875 C 24.6875 -27.957031 22.585938 -27.34375 20.265625 -27.34375 C 17.609375 -27.34375 15.375 -28.003906 13.5625 -29.328125 C 11.757812 -30.648438 10.40625 -32.394531 9.5 -34.5625 C 8.59375 -36.726562 8.140625 -39.039062 8.140625 -41.5 C 8.140625 -45.632812 9.0625 -49.539062 10.90625 -53.21875 C 12.75 -56.90625 15.347656 -60.171875 18.703125 -63.015625 C 22.066406 -65.859375 26.0625 -68.085938 30.6875 -69.703125 C 35.3125 -71.328125 40.398438 -72.140625 45.953125 -72.140625 C 52.160156 -72.140625 57.378906 -71.3125 61.609375 -69.65625 C 65.847656 -68.007812 69.242188 -65.75 71.796875 -62.875 C 74.347656 -60 76.1875 -56.703125 77.3125 -52.984375 C 78.445312 -49.265625 79.015625 -45.335938 79.015625 -41.203125 C 79.015625 -36.035156 78.238281 -30.945312 76.6875 -25.9375 C 75.132812 -20.925781 73.015625 -16.398438 70.328125 -12.359375 C 67.648438 -8.316406 64.566406 -5.082031 61.078125 -2.65625 C 57.585938 -0.238281 53.90625 0.96875 50.03125 0.96875 C 46.019531 0.96875 42.847656 -0.238281 40.515625 -2.65625 C 38.191406 -5.082031 36.898438 -8.300781 36.640625 -12.3125 C 33.929688 -7.269531 30.539062 -3.273438 26.46875 -0.328125 C 22.394531 2.609375 17.867188 4.078125 12.890625 4.078125 Z M 12.890625 4.078125 "/></g></g></g><g fill="#fed5ff" fill-opacity="1"><g transform="translate(170.736215, 155.273771)"><g><path d="M 40.53125 -26.5625 C 41.039062 -27.34375 41.71875 -27.617188 42.5625 -27.390625 C 43.40625 -27.160156 44.097656 -26.722656 44.640625 -26.078125 C 45.191406 -25.429688 45.273438 -24.785156 44.890625 -24.140625 C 44.242188 -23.109375 43.46875 -21.601562 42.5625 -19.625 C 41.65625 -17.65625 40.570312 -15.554688 39.3125 -13.328125 C 38.050781 -11.097656 36.578125 -8.960938 34.890625 -6.921875 C 33.210938 -4.890625 31.320312 -3.226562 29.21875 -1.9375 C 27.125 -0.644531 24.753906 0 22.109375 0 C 19.453125 0 17.347656 -0.5 15.796875 -1.5 C 14.242188 -2.5 13.128906 -3.789062 12.453125 -5.375 C 11.773438 -6.957031 11.4375 -8.5625 11.4375 -10.1875 C 11.4375 -12.445312 11.773438 -14.675781 12.453125 -16.875 C 13.128906 -19.070312 13.921875 -21.171875 14.828125 -23.171875 C 15.734375 -25.171875 16.523438 -27.007812 17.203125 -28.6875 C 17.890625 -30.375 18.234375 -31.800781 18.234375 -32.96875 C 18.234375 -33.476562 17.859375 -34.234375 17.109375 -35.234375 C 16.367188 -36.242188 15.03125 -37.101562 13.09375 -37.8125 C 12.507812 -36.519531 11.8125 -35.015625 11 -33.296875 C 10.195312 -31.585938 9.390625 -29.910156 8.578125 -28.265625 C 7.773438 -26.617188 7.113281 -25.242188 6.59375 -24.140625 C 6.207031 -23.296875 5.578125 -22.988281 4.703125 -23.21875 C 3.828125 -23.445312 3.097656 -23.914062 2.515625 -24.625 C 1.929688 -25.332031 1.835938 -25.976562 2.234375 -26.5625 C 3.140625 -27.851562 4.140625 -29.742188 5.234375 -32.234375 C 6.335938 -34.722656 7.304688 -37.066406 8.140625 -39.265625 C 7.171875 -39.585938 6.394531 -40.132812 5.8125 -40.90625 C 5.226562 -41.6875 4.9375 -42.953125 4.9375 -44.703125 C 4.9375 -46.054688 5.289062 -47.394531 6 -48.71875 C 6.71875 -50.039062 7.722656 -51.15625 9.015625 -52.0625 C 10.304688 -52.96875 11.828125 -53.421875 13.578125 -53.421875 C 16.609375 -53.421875 19.53125 -52.835938 22.34375 -51.671875 C 25.15625 -50.515625 27.46875 -49.046875 29.28125 -47.265625 C 31.09375 -45.484375 32 -43.722656 32 -41.984375 C 32 -40.171875 31.65625 -38.457031 30.96875 -36.84375 C 30.289062 -35.226562 29.597656 -33.578125 28.890625 -31.890625 C 28.179688 -30.210938 27.828125 -28.375 27.828125 -26.375 C 27.828125 -25.007812 28.28125 -23.875 29.1875 -22.96875 C 30.09375 -22.070312 31.644531 -21.625 33.84375 -21.625 C 35.320312 -21.625 36.5625 -22.09375 37.5625 -23.03125 C 38.570312 -23.96875 39.5625 -25.144531 40.53125 -26.5625 Z M 40.53125 -26.5625 "/></g></g></g><g fill="#fed5ff" fill-opacity="1"><g transform="translate(209.033686, 155.273771)"><g><path d="M 19.484375 -52.453125 C 17.160156 -52.453125 15.15625 -52.953125 13.46875 -53.953125 C 11.789062 -54.953125 10.953125 -56.742188 10.953125 -59.328125 C 10.953125 -62.753906 11.90625 -65.097656 13.8125 -66.359375 C 15.71875 -67.617188 18 -68.25 20.65625 -68.25 C 23.101562 -68.25 25.179688 -67.695312 26.890625 -66.59375 C 28.609375 -65.5 29.34375 -63.4375 29.09375 -60.40625 C 28.832031 -57.425781 27.796875 -55.351562 25.984375 -54.1875 C 24.171875 -53.03125 22.003906 -52.453125 19.484375 -52.453125 Z M 8.71875 0 C 5.488281 0 3.195312 -1.175781 1.84375 -3.53125 C 0.488281 -5.894531 -0.1875 -8.757812 -0.1875 -12.125 C -0.1875 -14.382812 0.0351562 -16.773438 0.484375 -19.296875 C 0.929688 -21.816406 1.515625 -24.238281 2.234375 -26.5625 C 4.492188 -33.613281 6.6875 -39.03125 8.8125 -42.8125 C 10.945312 -46.59375 13.40625 -48.484375 16.1875 -48.484375 C 18.382812 -48.484375 19.484375 -47.023438 19.484375 -44.109375 C 19.484375 -42.171875 19.109375 -40.179688 18.359375 -38.140625 C 17.617188 -36.109375 16.894531 -34.109375 16.1875 -32.140625 C 15.476562 -30.171875 15.125 -28.3125 15.125 -26.5625 C 15.125 -24.945312 15.523438 -23.734375 16.328125 -22.921875 C 17.140625 -22.117188 18.191406 -21.71875 19.484375 -21.71875 C 20.972656 -21.71875 22.21875 -22.171875 23.21875 -23.078125 C 24.21875 -23.984375 25.203125 -25.144531 26.171875 -26.5625 C 26.691406 -27.34375 27.351562 -27.632812 28.15625 -27.4375 C 28.96875 -27.238281 29.648438 -26.800781 30.203125 -26.125 C 30.753906 -25.445312 30.867188 -24.816406 30.546875 -24.234375 C 29.898438 -23.203125 29.140625 -21.71875 28.265625 -19.78125 C 27.390625 -17.84375 26.335938 -15.738281 25.109375 -13.46875 C 23.878906 -11.207031 22.472656 -9.054688 20.890625 -7.015625 C 19.304688 -4.984375 17.507812 -3.304688 15.5 -1.984375 C 13.5 -0.660156 11.238281 0 8.71875 0 Z M 8.71875 0 "/></g></g></g><g fill="#fed5ff" fill-opacity="1"><g transform="translate(232.884769, 155.273771)"><g><path d="M 49.546875 -26.5625 C 49.929688 -27.144531 50.539062 -27.351562 51.375 -27.1875 C 52.21875 -27.03125 52.945312 -26.675781 53.5625 -26.125 C 54.175781 -25.582031 54.289062 -24.921875 53.90625 -24.140625 C 53 -22.203125 51.816406 -20.195312 50.359375 -18.125 C 48.910156 -16.0625 47.101562 -14.332031 44.9375 -12.9375 C 42.769531 -11.550781 40.101562 -10.859375 36.9375 -10.859375 L 36.359375 -10.859375 C 34.097656 -7.566406 31.460938 -4.929688 28.453125 -2.953125 C 25.453125 -0.984375 22.398438 0 19.296875 0 C 16.515625 0 14.234375 -0.835938 12.453125 -2.515625 C 10.679688 -4.203125 10.117188 -6.984375 10.765625 -10.859375 C 10.953125 -11.953125 10.609375 -12.53125 9.734375 -12.59375 C 8.867188 -12.664062 8.304688 -12.085938 8.046875 -10.859375 C 7.335938 -7.304688 6.609375 -3.75 5.859375 -0.1875 C 5.117188 3.363281 4.28125 6.625 3.34375 9.59375 C 2.40625 12.570312 1.320312 14.945312 0.09375 16.71875 C -1.132812 18.5 -2.617188 19.390625 -4.359375 19.390625 C -6.753906 19.390625 -8.484375 18.804688 -9.546875 17.640625 C -10.617188 16.484375 -11.15625 14.835938 -11.15625 12.703125 C -11.15625 9.722656 -10.195312 5.84375 -8.28125 1.0625 C -6.375 -3.71875 -4.195312 -9.273438 -1.75 -15.609375 C -1.101562 -17.285156 -0.441406 -19.046875 0.234375 -20.890625 C 0.921875 -22.734375 1.585938 -24.625 2.234375 -26.5625 C 3.785156 -31.21875 5.078125 -34.984375 6.109375 -37.859375 C 7.140625 -40.734375 8.054688 -42.929688 8.859375 -44.453125 C 9.671875 -45.972656 10.5 -47.023438 11.34375 -47.609375 C 12.1875 -48.191406 13.222656 -48.484375 14.453125 -48.484375 C 16.128906 -48.484375 17.222656 -48.15625 17.734375 -47.5 C 18.253906 -46.851562 18.453125 -46.082031 18.328125 -45.1875 C 18.191406 -44.46875 18.476562 -43.992188 19.1875 -43.765625 C 19.90625 -43.546875 20.648438 -43.820312 21.421875 -44.59375 C 23.109375 -46.28125 24.742188 -47.347656 26.328125 -47.796875 C 27.910156 -48.253906 29.441406 -48.484375 30.921875 -48.484375 C 34.734375 -48.484375 37.800781 -47.171875 40.125 -44.546875 C 42.457031 -41.929688 43.625 -38.328125 43.625 -33.734375 C 43.625 -31.671875 43.460938 -29.632812 43.140625 -27.625 C 42.816406 -25.625 42.363281 -23.6875 41.78125 -21.8125 C 43.207031 -21.8125 44.566406 -22.179688 45.859375 -22.921875 C 47.148438 -23.671875 48.378906 -24.882812 49.546875 -26.5625 Z M 21.140625 -20.0625 C 22.753906 -20.0625 24.175781 -20.546875 25.40625 -21.515625 C 26.632812 -22.492188 27.601562 -23.675781 28.3125 -25.0625 C 29.019531 -26.445312 29.375 -27.820312 29.375 -29.1875 C 29.375 -30.601562 28.953125 -31.8125 28.109375 -32.8125 C 27.273438 -33.820312 25.921875 -34.328125 24.046875 -34.328125 C 22.492188 -34.328125 21.117188 -33.875 19.921875 -32.96875 C 18.722656 -32.0625 17.785156 -30.910156 17.109375 -29.515625 C 16.429688 -28.128906 16.09375 -26.726562 16.09375 -25.3125 C 16.09375 -23.882812 16.476562 -22.648438 17.25 -21.609375 C 18.03125 -20.578125 19.328125 -20.0625 21.140625 -20.0625 Z M 21.140625 -20.0625 "/></g></g></g><path stroke-linecap="butt" transform="matrix(0.368228, 0, 0, 0.368228, -154.229942, 215.117052)" fill="none" stroke-linejoin="miter" d="M 628.866134 61.3903 C 620.65535 61.3903 613.74938 59.438382 608.137617 55.523939 C 602.515245 51.620103 598.324987 46.475103 595.535018 40.078329 C 592.755657 33.681555 591.365976 26.892277 591.365976 19.710492 C 591.365976 9.112852 593.901348 -1.378705 598.982699 -11.785397 C 604.106483 -22.18148 611.797462 -31.633429 622.055639 -40.130636 C 632.356248 -48.617234 645.415001 -55.406513 661.231899 -60.487864 C 677.059406 -65.611648 695.655665 -68.178844 717.041893 -68.178844 C 727.84109 -68.178844 737.133915 -67.977287 744.952194 -67.595391 C 752.759865 -67.202885 759.962866 -66.81038 766.561196 -66.417875 C 773.148918 -66.02537 779.842723 -65.834421 786.621393 -65.834421 C 797.42059 -65.834421 805.769282 -66.375442 811.678076 -67.446875 C 817.58687 -68.571349 822.445448 -69.133587 826.253809 -69.133587 C 830.836572 -69.133587 833.944789 -68.08337 835.546634 -65.982937 C 837.159088 -63.882504 837.965315 -60.827328 837.965315 -56.828019 C 837.965315 -49.211296 836.108872 -41.976471 832.406593 -35.144759 C 828.693706 -28.35548 823.177417 -22.860408 815.847117 -18.67015 C 808.569859 -14.469283 799.54224 -12.36885 788.753651 -12.36885 C 781.518826 -12.36885 775.249351 -13.175077 769.924011 -14.787531 C 764.651711 -16.399985 759.45367 -18.203387 754.329886 -20.208346 C 749.248535 -22.202696 743.509473 -23.984882 737.112699 -25.554903 C 730.715925 -27.167357 722.833997 -27.962975 713.456305 -27.962975 C 701.638717 -27.962975 691.486623 -26.255047 682.989416 -22.839191 C 674.49221 -19.476377 667.999962 -15.031521 663.502064 -9.515231 C 659.014775 -4.041375 656.765827 1.888635 656.765827 8.285409 C 656.765827 12.295327 657.869085 15.658142 660.064992 18.39507 C 662.260899 21.078956 664.944786 22.426204 668.116652 22.426204 C 669.538158 25.59807 669.633632 29.448864 668.413683 33.999803 C 667.236168 38.487092 664.902353 42.783432 661.380415 46.888824 C 657.869085 50.941175 653.349971 54.378248 647.833682 57.21065 C 642.359826 60.000619 636.03731 61.3903 628.866134 61.3903 Z M 619.849123 176.595876 C 606.037184 176.595876 594.824265 174.134762 586.231584 169.201927 C 577.638903 164.322132 571.390645 157.989008 567.48681 150.234379 C 563.582974 142.4161 561.631057 134.406872 561.631057 126.206697 C 561.631057 118.006521 563.285943 110.167025 566.606325 102.698818 C 569.873665 95.17757 574.520078 89.077828 580.524347 84.388982 C 586.528615 79.647095 593.530059 77.281456 601.539286 77.281456 C 604.520204 77.281456 606.015967 78.480188 606.015967 80.867044 C 606.015967 87.507807 608.593772 92.886189 613.770597 96.980973 C 619.000463 101.086365 625.927649 103.133757 634.573371 103.133757 C 640.779197 103.133757 647.515434 101.372787 654.792693 97.861457 C 662.112384 94.350127 669.166869 88.855054 675.956148 81.386848 C 682.745427 73.8656 688.526922 63.999929 693.311242 51.789835 C 695.952696 45.000556 698.615366 37.977896 701.299253 30.700638 C 703.98314 23.370338 706.624594 16.51741 709.213006 10.120636 C 711.207357 4.89077 713.870027 1.177883 717.190409 -1.018025 C 720.51079 -3.213932 724.372193 -4.306582 728.764008 -4.306582 C 735.35173 -4.306582 739.701112 -2.842643 741.801545 0.0852332 C 743.901978 2.960068 744.145968 6.895729 742.533514 11.870997 C 737.558245 27.698503 732.646626 42.560659 727.809265 56.478681 C 723.024945 70.343661 717.826904 83.901003 712.21514 97.129488 C 700.83249 124.329037 687.285757 144.368018 671.564333 157.257039 C 655.885342 170.156669 638.657547 176.595876 619.849123 176.595876 Z M 859.234853 81.821786 C 860.847306 79.43493 862.937131 78.575662 865.525544 79.25459 C 868.113956 79.944126 870.267431 81.280765 871.975359 83.285724 C 873.683287 85.290683 873.927277 87.295642 872.707328 89.289993 C 870.702369 92.5149 868.315513 97.182529 865.525544 103.282272 C 862.746183 109.339582 859.404585 115.83183 855.500749 122.769624 C 851.586306 129.654377 847.024759 136.242099 841.794893 142.543399 C 836.628676 148.83409 830.783531 153.989699 824.291283 157.989008 C 817.799035 161.998926 810.447519 164.003885 802.247343 164.003885 C 794.047167 164.003885 787.523095 162.465689 782.696342 159.389297 C 777.912022 156.259864 774.464341 152.260554 772.363908 147.370152 C 770.263475 142.437316 769.213258 137.483264 769.213258 132.507996 C 769.213258 125.527769 770.263475 118.643016 772.363908 111.853737 C 774.464341 105.011417 776.904238 98.497952 779.694207 92.292127 C 782.52661 86.09691 784.987723 80.410889 787.088156 75.234064 C 789.18859 70.004197 790.238806 65.591166 790.238806 61.973753 C 790.238806 60.414341 789.093115 58.091135 786.791125 55.014743 C 784.499744 51.895918 780.351919 49.233247 774.34765 47.03734 C 772.53364 50.983608 770.390774 55.630021 767.897835 60.944753 C 765.404897 66.270094 762.890742 71.468136 760.355371 76.549487 C 757.862433 81.630837 755.836257 85.874137 754.276845 89.289993 C 753.056896 91.878405 751.073154 92.833148 748.346834 92.15422 C 745.652339 91.464684 743.413998 90.021962 741.599988 87.826054 C 739.849627 85.630147 739.552596 83.625188 740.730112 81.821786 C 743.551906 77.822476 746.660122 71.956115 750.022937 64.243919 C 753.449401 56.531722 756.451535 49.27568 759.039948 42.486401 C 756.05903 41.510443 753.661566 39.834339 751.858164 37.436875 C 750.054762 34.996978 749.153061 31.093143 749.153061 25.714761 C 749.153061 21.524503 750.24571 17.36607 752.441618 13.271286 C 754.637525 9.165894 757.745742 5.728821 761.745051 2.938852 C 765.744361 0.10645 770.433207 -1.304447 775.811589 -1.304447 C 785.231713 -1.304447 794.291157 0.498955 802.979312 4.116368 C 811.667468 7.723172 818.828035 12.295327 824.439798 17.811616 C 830.051562 23.274864 832.862748 28.695679 832.862748 34.063452 C 832.862748 39.685824 831.812531 45.000556 829.712098 50.039474 C 827.611665 55.014743 825.468799 60.11731 823.272891 65.347176 C 821.076984 70.513393 819.973726 76.210023 819.973726 82.40524 C 819.973726 86.606106 821.363406 90.128044 824.142768 92.949838 C 826.932737 95.739808 831.738273 97.129488 838.580593 97.129488 C 843.163357 97.129488 847.003542 95.686766 850.079934 92.811931 C 853.198759 89.884055 856.253935 86.213601 859.234853 81.821786 Z M 884.132411 164.003885 C 873.927277 164.003885 866.204472 159.803019 860.985214 151.401286 C 855.808389 142.999554 853.219976 132.115491 853.219976 118.73849 C 853.219976 110.294324 854.270193 101.330354 856.370626 91.857189 C 858.471059 82.330982 861.568667 72.985115 865.674059 63.80898 C 869.768843 54.622237 874.924452 46.273546 881.119669 38.752298 C 887.325494 31.23105 894.528495 25.226782 902.72867 20.739493 C 910.928846 16.241595 920.23228 14.003255 930.638972 14.003255 C 936.64324 14.003255 941.279045 14.565492 944.556993 15.679358 C 947.877375 16.761399 950.39153 18.098039 952.099458 19.710492 C 953.807386 21.322946 955.250108 22.69141 956.417015 23.815885 C 957.636963 24.887318 959.249417 25.428338 961.254376 25.428338 C 964.617191 25.428338 967.354119 24.473596 969.454552 22.564111 C 971.554985 20.665235 973.899408 18.75575 976.48782 16.856874 C 979.118666 14.947389 982.736079 14.003255 987.32945 14.003255 C 991.32876 14.003255 994.086904 15.00043 995.603884 17.005389 C 997.110255 18.99974 997.874049 21.715451 997.874049 25.131307 C 997.874049 30.700638 996.314636 36.238143 993.185203 41.754432 C 990.108811 47.28133 986.862687 54.431289 983.446831 63.214918 C 978.460955 74.205064 976.604511 82.606796 977.877501 88.409508 C 979.192924 94.222828 983.1498 97.129488 989.737523 97.129488 C 994.914348 97.129488 999.412245 95.782241 1003.220606 93.098354 C 1007.028967 90.372034 1010.444823 86.606106 1013.468174 81.821786 C 1015.038195 79.43493 1017.06437 78.575662 1019.557308 79.25459 C 1022.09268 79.944126 1024.193113 81.280765 1025.848 83.285724 C 1027.555928 85.290683 1027.927216 87.295642 1026.951257 89.289993 C 1023.333845 96.27022 1019.483051 104.035458 1015.377659 112.585706 C 1011.272266 121.082913 1006.71072 129.230047 1001.68241 137.048326 C 996.696533 144.813564 991.010512 151.252771 984.613739 156.387163 C 978.216965 161.457905 970.823016 164.003885 962.421283 164.003885 C 952.0252 164.003885 944.673684 159.803019 940.377343 151.401286 C 936.081003 142.999554 934.839838 132.60347 936.64324 120.202428 L 935.465725 120.202428 C 929.461456 132.412522 922.046291 142.755564 913.20962 151.252771 C 904.415382 159.749977 894.719443 164.003885 884.132411 164.003885 Z M 914.153754 101.892592 C 919.330579 101.892592 923.870909 100.396829 927.774745 97.426519 C 931.689188 94.39256 934.733755 90.732714 936.929663 86.436374 C 939.136178 82.140033 940.228828 77.896734 940.228828 73.695868 C 940.228828 68.709991 938.817931 64.827372 935.985529 62.048011 C 933.195559 59.215609 929.419023 57.794104 924.634703 57.794104 C 919.457878 57.794104 914.959981 59.215609 911.15162 62.048011 C 907.343258 64.827372 904.394165 68.370527 902.293732 72.666868 C 900.193299 76.963208 899.143083 81.31259 899.143083 85.704405 C 899.143083 90.679673 900.479722 94.63655 903.174217 97.564426 C 905.900537 100.44987 909.570991 101.892592 914.153754 101.892592 Z M 1059.348847 164.003885 C 1047.34031 164.003885 1037.517073 161.30939 1029.90035 155.941616 C 1022.336669 150.520802 1016.693081 143.370842 1012.980194 134.48113 C 1009.277916 125.548985 1007.421472 115.884871 1007.421472 105.478179 C 1007.421472 94.880539 1009.171833 84.240467 1012.693772 73.547352 C 1016.205102 62.854238 1021.265236 53.009784 1027.852958 44.024597 C 1034.440681 34.996978 1042.428692 27.740936 1051.806383 22.277689 C 1061.226507 16.761399 1071.845364 14.003255 1083.662952 14.003255 C 1098.068954 14.003255 1108.571119 17.716142 1115.158841 25.131307 C 1121.746564 32.50404 1125.045729 41.096721 1125.045729 50.909351 C 1125.045729 59.51264 1123.390842 66.461042 1120.07046 71.786383 C 1116.792512 77.058682 1112.793202 80.898868 1108.051315 83.285724 C 1103.362469 85.683188 1098.822139 86.871312 1094.430324 86.871312 C 1089.253499 86.871312 1085.349664 86.001436 1082.70821 84.240467 C 1080.119798 82.437064 1078.825591 80.52758 1078.825591 78.522621 C 1078.825591 76.719219 1079.366612 75.234064 1080.438045 74.056548 C 1081.562519 72.8366 1082.70821 71.31962 1083.885726 69.516218 C 1085.105674 67.712816 1085.710344 64.997104 1085.710344 61.3903 C 1085.710344 58.600331 1084.808643 56.160433 1083.005241 54.06 C 1081.244272 51.959567 1078.051189 50.909351 1073.404776 50.909351 C 1066.626106 50.909351 1061.375023 53.869052 1057.662136 59.777846 C 1054.00229 65.633599 1052.167063 72.369837 1052.167063 79.986559 C 1052.167063 87.995786 1054.267497 94.519859 1058.468363 99.548169 C 1062.669229 104.523437 1068.111261 107.918077 1074.805065 109.732087 C 1081.488262 111.482448 1088.744303 111.684005 1096.551974 110.315541 C 1104.370253 108.894035 1112.061233 105.849468 1119.624914 101.160622 C 1127.241636 96.471777 1133.861183 90.021962 1139.472946 81.821786 C 1141.032359 79.43493 1143.111576 78.575662 1145.699988 79.25459 C 1148.341442 79.944126 1150.484308 81.280765 1152.149803 83.285724 C 1153.857731 85.290683 1154.122937 87.295642 1152.95603 89.289993 C 1139.769977 113.71018 1125.268502 132.264006 1109.440996 144.962079 C 1093.624098 157.649544 1076.926715 164.003885 1059.348847 164.003885 Z M 1152.977246 164.003885 C 1144.331524 164.003885 1138.252998 161.044184 1134.741668 155.13539 C 1131.272771 149.226595 1129.533018 141.885687 1129.533018 133.09145 C 1129.533018 125.474727 1130.48776 117.179077 1132.397245 108.193891 C 1134.296121 99.208705 1136.736018 90.414467 1139.716936 81.821786 C 1149.922071 52.627887 1158.567793 28.133442 1165.643495 8.359667 C 1172.772238 -11.467149 1179.635774 -26.424779 1186.223496 -36.53444 C 1192.821827 -46.6441 1200.120302 -51.693626 1208.129529 -51.693626 C 1214.324746 -51.693626 1218.186148 -49.402245 1219.703128 -44.808873 C 1221.209499 -40.22611 1219.745561 -33.118584 1215.300705 -23.496903 C 1209.932931 -11.297417 1204.045353 1.570388 1197.64858 15.095904 C 1191.251806 28.578988 1186.637218 42.518226 1183.804816 56.924227 C 1183.221362 60.096094 1184.08063 62.292001 1186.372012 63.511949 C 1188.663394 64.678857 1191.251806 64.827372 1194.13725 63.946888 C 1197.065126 63.077011 1199.144343 61.316042 1200.364291 58.674588 C 1206.559508 44.714134 1213.348787 33.77703 1220.72152 25.863276 C 1228.147293 17.960132 1237.24917 14.003255 1248.037759 14.003255 C 1257.022945 14.003255 1263.663709 16.421936 1267.960049 21.248688 C 1272.25639 26.033008 1274.409864 31.41139 1274.409864 37.362618 C 1274.409864 57.772887 1262.030038 67.978022 1237.280995 67.978022 C 1232.242077 68.179579 1228.582232 69.590476 1226.29085 72.23193 C 1223.999468 74.820342 1222.843169 77.917951 1222.843169 81.524755 C 1222.843169 86.510632 1225.293675 90.372034 1230.173469 93.098354 C 1235.106304 95.782241 1241.67281 97.129488 1249.872986 97.129488 C 1258.667224 97.129488 1266.549152 96.02623 1273.529379 93.830323 C 1280.509607 91.591983 1285.909205 87.582065 1289.717566 81.821786 C 1292.11503 78.204373 1294.554927 76.814693 1297.037258 77.652744 C 1299.583237 78.427146 1301.535155 80.060817 1302.903619 82.553755 C 1304.314516 85.046693 1304.441815 87.295642 1303.264299 89.289993 C 1301.269949 92.705849 1298.798227 97.426519 1295.87035 103.430788 C 1292.984907 109.382015 1289.494793 115.83183 1285.400009 122.769624 C 1281.294617 129.654377 1276.531514 136.242099 1271.110699 142.543399 C 1265.742925 148.83409 1259.590141 153.989699 1252.652347 157.989008 C 1245.767594 161.998926 1238.129655 164.003885 1229.727922 164.003885 C 1219.331839 164.003885 1211.662076 159.315039 1206.72924 149.937348 C 1201.849446 140.517223 1198.019868 125.495944 1195.229899 104.894726 C 1194.646446 99.717901 1192.790002 96.471777 1189.671177 95.156354 C 1186.594785 93.830323 1183.635084 94.350127 1180.802682 96.69455 C 1178.023321 98.985932 1176.63364 103.229231 1176.63364 109.435056 L 1176.63364 132.210965 C 1176.63364 137.196842 1176.018362 142.150894 1174.798413 147.083729 C 1173.631506 151.963523 1171.329516 156.015874 1167.91366 159.240782 C 1164.550845 162.412648 1159.564969 164.003885 1152.977246 164.003885 Z M 1152.977246 164.003885 " stroke="#cb7f00" stroke-width="38.25" stroke-opacity="1" stroke-miterlimit="4"/><g fill="#fed5ff" fill-opacity="1"><g transform="translate(58.105065, 275.506382)"><g><path d="M 19.21875 -37.78125 C 16.195312 -37.78125 13.65625 -38.5 11.59375 -39.9375 C 9.53125 -41.375 7.984375 -43.269531 6.953125 -45.625 C 5.921875 -47.976562 5.40625 -50.484375 5.40625 -53.140625 C 5.40625 -57.035156 6.34375 -60.898438 8.21875 -64.734375 C 10.101562 -68.566406 12.941406 -72.046875 16.734375 -75.171875 C 20.523438 -78.304688 25.328125 -80.8125 31.140625 -82.6875 C 36.960938 -84.5625 43.816406 -85.5 51.703125 -85.5 C 55.679688 -85.5 59.101562 -85.425781 61.96875 -85.28125 C 64.84375 -85.132812 67.492188 -84.988281 69.921875 -84.84375 C 72.359375 -84.695312 74.828125 -84.625 77.328125 -84.625 C 81.304688 -84.625 84.378906 -84.820312 86.546875 -85.21875 C 88.722656 -85.625 90.507812 -85.828125 91.90625 -85.828125 C 93.601562 -85.828125 94.742188 -85.441406 95.328125 -84.671875 C 95.921875 -83.898438 96.21875 -82.78125 96.21875 -81.3125 C 96.21875 -78.507812 95.535156 -75.851562 94.171875 -73.34375 C 92.804688 -70.84375 90.78125 -68.816406 88.09375 -67.265625 C 85.40625 -65.722656 82.070312 -64.953125 78.09375 -64.953125 C 75.445312 -64.953125 73.144531 -65.242188 71.1875 -65.828125 C 69.238281 -66.421875 67.328125 -67.085938 65.453125 -67.828125 C 63.578125 -68.566406 61.457031 -69.226562 59.09375 -69.8125 C 56.738281 -70.40625 53.832031 -70.703125 50.375 -70.703125 C 46.03125 -70.703125 42.289062 -70.070312 39.15625 -68.8125 C 36.03125 -67.5625 33.640625 -65.925781 31.984375 -63.90625 C 30.328125 -61.882812 29.5 -59.691406 29.5 -57.328125 C 29.5 -55.859375 29.898438 -54.625 30.703125 -53.625 C 31.515625 -52.632812 32.507812 -52.140625 33.6875 -52.140625 C 34.207031 -50.960938 34.242188 -49.546875 33.796875 -47.890625 C 33.359375 -46.234375 32.492188 -44.648438 31.203125 -43.140625 C 29.921875 -41.628906 28.265625 -40.359375 26.234375 -39.328125 C 24.210938 -38.296875 21.875 -37.78125 19.21875 -37.78125 Z M 15.90625 4.640625 C 10.820312 4.640625 6.695312 3.738281 3.53125 1.9375 C 0.363281 0.132812 -1.9375 -2.203125 -3.375 -5.078125 C -4.8125 -7.953125 -5.53125 -10.898438 -5.53125 -13.921875 C -5.53125 -16.941406 -4.921875 -19.832031 -3.703125 -22.59375 C -2.484375 -25.351562 -0.769531 -27.597656 1.4375 -29.328125 C 3.644531 -31.054688 6.222656 -31.921875 9.171875 -31.921875 C 10.273438 -31.921875 10.828125 -31.476562 10.828125 -30.59375 C 10.828125 -28.164062 11.785156 -26.195312 13.703125 -24.6875 C 15.617188 -23.175781 18.160156 -22.421875 21.328125 -22.421875 C 23.609375 -22.421875 26.09375 -23.066406 28.78125 -24.359375 C 31.46875 -25.648438 34.0625 -27.675781 36.5625 -30.4375 C 39.070312 -33.195312 41.207031 -36.820312 42.96875 -41.3125 C 43.925781 -43.820312 44.898438 -46.421875 45.890625 -49.109375 C 46.890625 -51.796875 47.867188 -54.316406 48.828125 -56.671875 C 49.566406 -58.585938 50.539062 -59.945312 51.75 -60.75 C 52.96875 -61.5625 54.382812 -61.96875 56 -61.96875 C 58.4375 -61.96875 60.039062 -61.429688 60.8125 -60.359375 C 61.582031 -59.296875 61.675781 -57.84375 61.09375 -56 C 59.25 -50.1875 57.441406 -44.71875 55.671875 -39.59375 C 53.910156 -34.476562 52 -29.492188 49.9375 -24.640625 C 45.738281 -14.617188 40.75 -7.234375 34.96875 -2.484375 C 29.1875 2.265625 22.832031 4.640625 15.90625 4.640625 Z M 15.90625 4.640625 "/></g></g></g><g fill="#fed5ff" fill-opacity="1"><g transform="translate(115.990361, 275.506382)"><g><path d="M 46.171875 -30.265625 C 46.765625 -31.148438 47.539062 -31.460938 48.5 -31.203125 C 49.457031 -30.953125 50.25 -30.457031 50.875 -29.71875 C 51.5 -28.976562 51.585938 -28.238281 51.140625 -27.5 C 50.410156 -26.320312 49.53125 -24.609375 48.5 -22.359375 C 47.46875 -20.117188 46.234375 -17.726562 44.796875 -15.1875 C 43.359375 -12.644531 41.679688 -10.210938 39.765625 -7.890625 C 37.847656 -5.578125 35.691406 -3.679688 33.296875 -2.203125 C 30.910156 -0.734375 28.207031 0 25.1875 0 C 22.164062 0 19.769531 -0.566406 18 -1.703125 C 16.238281 -2.847656 14.96875 -4.320312 14.1875 -6.125 C 13.414062 -7.9375 13.03125 -9.757812 13.03125 -11.59375 C 13.03125 -14.175781 13.414062 -16.71875 14.1875 -19.21875 C 14.96875 -21.726562 15.875 -24.125 16.90625 -26.40625 C 17.9375 -28.6875 18.835938 -30.785156 19.609375 -32.703125 C 20.378906 -34.617188 20.765625 -36.238281 20.765625 -37.5625 C 20.765625 -38.144531 20.34375 -39.007812 19.5 -40.15625 C 18.65625 -41.300781 17.125 -42.273438 14.90625 -43.078125 C 14.25 -41.609375 13.457031 -39.894531 12.53125 -37.9375 C 11.613281 -35.988281 10.691406 -34.078125 9.765625 -32.203125 C 8.847656 -30.328125 8.097656 -28.757812 7.515625 -27.5 C 7.066406 -26.550781 6.34375 -26.203125 5.34375 -26.453125 C 4.351562 -26.710938 3.523438 -27.25 2.859375 -28.0625 C 2.203125 -28.875 2.097656 -29.609375 2.546875 -30.265625 C 3.578125 -31.742188 4.71875 -33.898438 5.96875 -36.734375 C 7.21875 -39.566406 8.320312 -42.234375 9.28125 -44.734375 C 8.175781 -45.109375 7.289062 -45.734375 6.625 -46.609375 C 5.96875 -47.492188 5.640625 -48.929688 5.640625 -50.921875 C 5.640625 -52.472656 6.039062 -54.003906 6.84375 -55.515625 C 7.65625 -57.023438 8.796875 -58.296875 10.265625 -59.328125 C 11.742188 -60.359375 13.476562 -60.875 15.46875 -60.875 C 18.925781 -60.875 22.253906 -60.207031 25.453125 -58.875 C 28.660156 -57.550781 31.296875 -55.875 33.359375 -53.84375 C 35.421875 -51.820312 36.453125 -49.816406 36.453125 -47.828125 C 36.453125 -45.765625 36.066406 -43.8125 35.296875 -41.96875 C 34.523438 -40.132812 33.734375 -38.257812 32.921875 -36.34375 C 32.109375 -34.425781 31.703125 -32.328125 31.703125 -30.046875 C 31.703125 -28.503906 32.21875 -27.21875 33.25 -26.1875 C 34.28125 -25.15625 36.046875 -24.640625 38.546875 -24.640625 C 40.242188 -24.640625 41.660156 -25.171875 42.796875 -26.234375 C 43.941406 -27.304688 45.066406 -28.648438 46.171875 -30.265625 Z M 46.171875 -30.265625 "/></g></g></g><g fill="#fed5ff" fill-opacity="1"><g transform="translate(159.625244, 275.506382)"><g><path d="M 11.703125 0 C 7.953125 0 5.117188 -1.546875 3.203125 -4.640625 C 1.285156 -7.734375 0.328125 -11.75 0.328125 -16.6875 C 0.328125 -19.78125 0.710938 -23.070312 1.484375 -26.5625 C 2.265625 -30.0625 3.410156 -33.503906 4.921875 -36.890625 C 6.429688 -40.285156 8.328125 -43.363281 10.609375 -46.125 C 12.890625 -48.882812 15.539062 -51.09375 18.5625 -52.75 C 21.582031 -54.40625 25.003906 -55.234375 28.828125 -55.234375 C 31.035156 -55.234375 32.75 -55.03125 33.96875 -54.625 C 35.1875 -54.21875 36.109375 -53.71875 36.734375 -53.125 C 37.359375 -52.539062 37.890625 -52.046875 38.328125 -51.640625 C 38.773438 -51.234375 39.363281 -51.03125 40.09375 -51.03125 C 41.351562 -51.03125 42.367188 -51.378906 43.140625 -52.078125 C 43.910156 -52.785156 44.773438 -53.488281 45.734375 -54.1875 C 46.691406 -54.882812 48.019531 -55.234375 49.71875 -55.234375 C 51.1875 -55.234375 52.195312 -54.863281 52.75 -54.125 C 53.300781 -53.394531 53.578125 -52.398438 53.578125 -51.140625 C 53.578125 -49.078125 53.003906 -47.035156 51.859375 -45.015625 C 50.722656 -42.992188 49.53125 -40.363281 48.28125 -37.125 C 46.4375 -33.070312 45.753906 -29.976562 46.234375 -27.84375 C 46.710938 -25.707031 48.164062 -24.640625 50.59375 -24.640625 C 52.507812 -24.640625 54.164062 -25.132812 55.5625 -26.125 C 56.96875 -27.125 58.222656 -28.503906 59.328125 -30.265625 C 59.910156 -31.148438 60.660156 -31.460938 61.578125 -31.203125 C 62.503906 -30.953125 63.28125 -30.457031 63.90625 -29.71875 C 64.53125 -28.976562 64.660156 -28.238281 64.296875 -27.5 C 62.960938 -24.925781 61.539062 -22.070312 60.03125 -18.9375 C 58.53125 -15.8125 56.859375 -12.8125 55.015625 -9.9375 C 53.171875 -7.070312 51.070312 -4.695312 48.71875 -2.8125 C 46.363281 -0.9375 43.640625 0 40.546875 0 C 36.710938 0 34.003906 -1.546875 32.421875 -4.640625 C 30.835938 -7.734375 30.378906 -11.5625 31.046875 -16.125 L 30.59375 -16.125 C 28.382812 -11.632812 25.660156 -7.820312 22.421875 -4.6875 C 19.179688 -1.5625 15.609375 0 11.703125 0 Z M 22.75 -22.859375 C 24.664062 -22.859375 26.34375 -23.410156 27.78125 -24.515625 C 29.21875 -25.628906 30.34375 -26.976562 31.15625 -28.5625 C 31.96875 -30.144531 32.375 -31.707031 32.375 -33.25 C 32.375 -35.09375 31.859375 -36.53125 30.828125 -37.5625 C 29.796875 -38.59375 28.394531 -39.109375 26.625 -39.109375 C 24.707031 -39.109375 23.046875 -38.59375 21.640625 -37.5625 C 20.242188 -36.53125 19.160156 -35.222656 18.390625 -33.640625 C 17.617188 -32.054688 17.234375 -30.453125 17.234375 -28.828125 C 17.234375 -26.992188 17.726562 -25.539062 18.71875 -24.46875 C 19.71875 -23.394531 21.0625 -22.859375 22.75 -22.859375 Z M 22.75 -22.859375 "/></g></g></g><g fill="#fed5ff" fill-opacity="1"><g transform="translate(216.405858, 275.506382)"><g><path d="M 19.4375 0 C 15.019531 0 11.410156 -0.992188 8.609375 -2.984375 C 5.816406 -4.972656 3.738281 -7.601562 2.375 -10.875 C 1.007812 -14.15625 0.328125 -17.710938 0.328125 -21.546875 C 0.328125 -25.441406 0.972656 -29.359375 2.265625 -33.296875 C 3.554688 -37.242188 5.414062 -40.875 7.84375 -44.1875 C 10.269531 -47.5 13.210938 -50.164062 16.671875 -52.1875 C 20.140625 -54.21875 24.046875 -55.234375 28.390625 -55.234375 C 33.691406 -55.234375 37.554688 -53.867188 39.984375 -51.140625 C 42.421875 -48.421875 43.640625 -45.253906 43.640625 -41.640625 C 43.640625 -38.472656 43.03125 -35.914062 41.8125 -33.96875 C 40.59375 -32.019531 39.117188 -30.601562 37.390625 -29.71875 C 35.660156 -28.832031 33.988281 -28.390625 32.375 -28.390625 C 30.457031 -28.390625 29.019531 -28.71875 28.0625 -29.375 C 27.101562 -30.039062 26.625 -30.742188 26.625 -31.484375 C 26.625 -32.148438 26.828125 -32.703125 27.234375 -33.140625 C 27.640625 -33.578125 28.0625 -34.128906 28.5 -34.796875 C 28.9375 -35.460938 29.15625 -36.457031 29.15625 -37.78125 C 29.15625 -38.8125 28.820312 -39.710938 28.15625 -40.484375 C 27.5 -41.253906 26.328125 -41.640625 24.640625 -41.640625 C 22.128906 -41.640625 20.191406 -40.550781 18.828125 -38.375 C 17.472656 -36.207031 16.796875 -33.726562 16.796875 -30.9375 C 16.796875 -27.988281 17.566406 -25.59375 19.109375 -23.75 C 20.660156 -21.90625 22.664062 -20.648438 25.125 -19.984375 C 27.59375 -19.328125 30.265625 -19.253906 33.140625 -19.765625 C 36.015625 -20.285156 38.847656 -21.410156 41.640625 -23.140625 C 44.441406 -24.867188 46.875 -27.242188 48.9375 -30.265625 C 49.53125 -31.148438 50.300781 -31.460938 51.25 -31.203125 C 52.207031 -30.953125 53 -30.457031 53.625 -29.71875 C 54.257812 -28.976562 54.351562 -28.238281 53.90625 -27.5 C 49.050781 -18.519531 43.710938 -11.691406 37.890625 -7.015625 C 32.066406 -2.335938 25.914062 0 19.4375 0 Z M 19.4375 0 "/></g></g></g><g fill="#fed5ff" fill-opacity="1"><g transform="translate(262.80247, 275.506382)"><g><path d="M 7.515625 0 C 4.347656 0 2.117188 -1.082031 0.828125 -3.25 C -0.460938 -5.425781 -1.109375 -8.132812 -1.109375 -11.375 C -1.109375 -14.175781 -0.753906 -17.234375 -0.046875 -20.546875 C 0.648438 -23.859375 1.550781 -27.097656 2.65625 -30.265625 C 6.40625 -41.015625 9.585938 -50.035156 12.203125 -57.328125 C 14.816406 -64.617188 17.335938 -70.125 19.765625 -73.84375 C 22.203125 -77.5625 24.894531 -79.421875 27.84375 -79.421875 C 30.125 -79.421875 31.539062 -78.570312 32.09375 -76.875 C 32.644531 -75.1875 32.109375 -72.578125 30.484375 -69.046875 C 28.492188 -64.546875 26.320312 -59.8125 23.96875 -54.84375 C 21.613281 -49.875 19.921875 -44.738281 18.890625 -39.4375 C 18.671875 -38.257812 18.984375 -37.445312 19.828125 -37 C 20.671875 -36.5625 21.625 -36.507812 22.6875 -36.84375 C 23.757812 -37.175781 24.519531 -37.820312 24.96875 -38.78125 C 27.25 -43.925781 29.75 -47.953125 32.46875 -50.859375 C 35.195312 -53.773438 38.550781 -55.234375 42.53125 -55.234375 C 45.84375 -55.234375 48.289062 -54.347656 49.875 -52.578125 C 51.457031 -50.816406 52.25 -48.832031 52.25 -46.625 C 52.25 -39.101562 47.679688 -35.34375 38.546875 -35.34375 C 36.710938 -35.269531 35.367188 -34.753906 34.515625 -33.796875 C 33.671875 -32.847656 33.25 -31.707031 33.25 -30.375 C 33.25 -28.539062 34.148438 -27.125 35.953125 -26.125 C 37.765625 -25.132812 40.175781 -24.640625 43.1875 -24.640625 C 46.425781 -24.640625 49.332031 -25.039062 51.90625 -25.84375 C 54.488281 -26.65625 56.484375 -28.128906 57.890625 -30.265625 C 58.773438 -31.585938 59.675781 -32.101562 60.59375 -31.8125 C 61.507812 -31.519531 62.222656 -30.910156 62.734375 -29.984375 C 63.253906 -29.066406 63.296875 -28.238281 62.859375 -27.5 C 62.117188 -26.25 61.210938 -24.519531 60.140625 -22.3125 C 59.078125 -20.101562 57.789062 -17.726562 56.28125 -15.1875 C 54.769531 -12.644531 53.019531 -10.210938 51.03125 -7.890625 C 49.039062 -5.578125 46.773438 -3.679688 44.234375 -2.203125 C 41.703125 -0.734375 38.890625 0 35.796875 0 C 31.960938 0 29.144531 -1.726562 27.34375 -5.1875 C 25.539062 -8.65625 24.125 -14.179688 23.09375 -21.765625 C 22.863281 -23.679688 22.175781 -24.878906 21.03125 -25.359375 C 19.894531 -25.835938 18.8125 -25.648438 17.78125 -24.796875 C 16.75 -23.953125 16.234375 -22.390625 16.234375 -20.109375 L 16.234375 -11.703125 C 16.234375 -9.867188 16.007812 -8.046875 15.5625 -6.234375 C 15.125 -4.429688 14.28125 -2.941406 13.03125 -1.765625 C 11.78125 -0.585938 9.941406 0 7.515625 0 Z M 7.515625 0 "/></g></g></g></svg>